<?xml version="1.0" encoding="UTF-8" standalone="no"?>
<!-- Created with Inkscape (http://www.inkscape.org/) -->

<svg
   width="17.700731mm"
   height="17.700731mm"
   viewBox="0 0 17.700731 17.700731"
   version="1.1"
   id="svg1"
   xml:space="preserve"
   sodipodi:docname="tlf_logo.svg"
   inkscape:version="1.3 (0e150ed6c4, 2023-07-21)"
   xmlns:inkscape="http://www.inkscape.org/namespaces/inkscape"
   xmlns:sodipodi="http://sodipodi.sourceforge.net/DTD/sodipodi-0.dtd"
   xmlns="http://www.w3.org/2000/svg"
   xmlns:svg="http://www.w3.org/2000/svg"><sodipodi:namedview
     id="namedview1"
     pagecolor="#ffffff"
     bordercolor="#000000"
     borderopacity="0.25"
     inkscape:showpageshadow="2"
     inkscape:pageopacity="0.0"
     inkscape:pagecheckerboard="0"
     inkscape:deskcolor="#d1d1d1"
     inkscape:document-units="mm"
     inkscape:zoom="2.8044052"
     inkscape:cx="21.21662"
     inkscape:cy="60.797207"
     inkscape:window-width="1920"
     inkscape:window-height="1001"
     inkscape:window-x="-9"
     inkscape:window-y="-9"
     inkscape:window-maximized="1"
     inkscape:current-layer="layer1" /><defs
     id="defs1"><inkscape:path-effect
       effect="fillet_chamfer"
       id="path-effect5"
       is_visible="true"
       lpeversion="1"
       nodesatellites_param="F,0,1,1,0,6.3211369,0,1 @ F,0,0,1,0,6.5737954,0,1 @ F,0,0,1,0,6.2343069,0,1 @ F,0,1,1,0,6.3211369,0,1"
       radius="0"
       unit="px"
       method="auto"
       mode="F"
       chamfer_steps="1"
       flexible="false"
       use_knot_distance="true"
       apply_no_radius="true"
       apply_with_radius="true"
       only_selected="false"
       hide_knots="false" /><inkscape:path-effect
       effect="fillet_chamfer"
       id="path-effect4"
       is_visible="true"
       lpeversion="1"
       nodesatellites_param="F,0,0,1,0,8.70573,0,1 @ F,0,0,1,0,9.0743688,0,1 @ F,0,0,1,0,9.4191298,0,1 @ F,0,0,1,0,8.9712256,0,1"
       radius="0"
       unit="px"
       method="auto"
       mode="F"
       chamfer_steps="1"
       flexible="false"
       use_knot_distance="true"
       apply_no_radius="true"
       apply_with_radius="true"
       only_selected="false"
       hide_knots="false" /><inkscape:path-effect
       effect="fillet_chamfer"
       id="path-effect3"
       is_visible="true"
       lpeversion="1"
       nodesatellites_param="F,0,0,1,0,5.849388,0,1 @ F,0,0,1,0,8.8951637,0,1 @ F,0,0,1,0,8.0780326,0,1 @ F,0,0,1,0,6.6504478,0,1"
       radius="0"
       unit="px"
       method="auto"
       mode="F"
       chamfer_steps="1"
       flexible="false"
       use_knot_distance="true"
       apply_no_radius="true"
       apply_with_radius="true"
       only_selected="false"
       hide_knots="false" /><inkscape:path-effect
       effect="fillet_chamfer"
       id="path-effect2"
       is_visible="true"
       lpeversion="1"
       nodesatellites_param="F,0,0,1,0,3.2253654,0,1 @ F,0,0,1,0,7.6911136,0,1 @ F,0,0,1,0,3.3187839,0,1 @ F,0,0,1,0,6.7636186,0,1 @ F,0,0,1,0,5.0817076,0,1 @ F,0,0,1,0,3.2253654,0,1"
       radius="0"
       unit="px"
       method="auto"
       mode="F"
       chamfer_steps="1"
       flexible="false"
       use_knot_distance="true"
       apply_no_radius="true"
       apply_with_radius="true"
       only_selected="false"
       hide_knots="false" /></defs><g
     inkscape:label="Layer 1"
     inkscape:groupmode="layer"
     id="layer1"
     transform="translate(-95.932456,-141.16349)"><circle
       style="opacity:1;fill:#2b2b2b;fill-opacity:1;stroke-width:0.121666"
       id="path7"
       cx="104.78282"
       cy="150.01385"
       r="8.8503656" /><path
       style="opacity:1;fill:#ff9933;fill-opacity:1;stroke-width:0.264583"
       d="M 18.856735,199.26753 23.702342,97.043779 a 7.8334283,7.8334283 137.18868 0 1 8.052037,-7.459223 l 93.516431,2.715813 a 19.715112,19.715112 11.218877 0 1 6.4204,1.273471 l 57.10829,21.66409 a 7.8732456,7.8732456 61.438969 0 1 4.90568,9.01223 l -21.23351,99.01477 a 7.4624444,7.4624444 136.35737 0 1 -6.07917,5.79774 l -95.151773,15.73335 a 6.8632094,6.8632094 15.782273 0 1 -5.61809,-1.58788 L 21.13995,204.60333 a 6.6482166,6.6482166 66.833676 0 1 -2.283215,-5.3358 z"
       id="path1"
       sodipodi:nodetypes="ccccccc"
       inkscape:path-effect="#path-effect2"
       inkscape:original-d="M 18.704018,202.48928 24.066507,89.361292 128.5882,92.396709 195.12338,117.6369 171.40613,228.23367 68.058569,245.32219 Z"
       transform="matrix(0.0789174,0,0,0.0789174,96.59843,137.32358)" /><path
       style="opacity:1;fill:#2b2b2b;fill-opacity:1;stroke-width:0.264583"
       d="M 32.327036,98.228214 70.593155,117.1792 a 12.95677,12.95677 60.817167 0 1 7.151425,12.80498 l -9.462867,102.24349 a 4.1695379,4.1695379 157.98693 0 1 -6.869974,2.77748 L 26.390964,204.89735 A 13.502522,13.502522 66.907863 0 1 21.711062,193.9213 l 5.054832,-92.44838 a 3.8557246,3.8557246 149.7381 0 1 5.561142,-3.244706 z"
       id="path2"
       inkscape:path-effect="#path-effect3"
       inkscape:original-d="m 27.085246,95.63226 51.479098,25.49461 -11.02709,119.14446 -46.189278,-39.7095 z"
       sodipodi:nodetypes="ccccc"
       transform="matrix(0.0789174,0,0,0.0789174,96.59843,137.32358)" /><path
       style="opacity:1;fill:#2b2b2b;fill-opacity:1;stroke-width:0.264583"
       d="M 33.866689,94.686044 74.085594,113.9248 a 29.141995,29.141995 12.85227 0 0 12.504013,2.85284 l 93.382623,0.22878 a 1.1316288,1.1316288 100.42847 0 0 0.40308,-2.19009 L 132.11071,96.562699 A 37.111388,37.111388 11.050226 0 0 119.879,94.173964 L 34.483669,92.110997 a 1.3539978,1.3539978 103.47402 0 0 -0.61698,2.575047 z"
       id="path3"
       inkscape:path-effect="#path-effect5"
       inkscape:original-d="M 28.164376,91.958336 80.015831,116.76154 186.20652,117.02169 126.19829,94.326625 Z"
       sodipodi:nodetypes="ccccc"
       transform="matrix(0.0789174,0,0,0.0789174,96.59843,137.32358)" /><path
       style="opacity:1;fill:#2b2b2b;fill-opacity:1;stroke-width:0.264583"
       d="m 90.786231,120.30002 91.189459,0.59214 a 7.3703656,7.3703656 51.28792 0 1 7.15595,8.92823 l -18.78078,86.83673 a 13.706464,13.706464 136.70078 0 1 -11.29931,10.64764 l -79.615463,12.3283 a 6.9780271,6.9780271 43.32116 0 1 -8.014354,-7.55793 l 9.832931,-103.16519 a 9.5127152,9.5127152 137.9083 0 1 9.531567,-8.60992 z"
       id="path4"
       inkscape:path-effect="#path-effect4"
       inkscape:original-d="M 82.080685,120.24349 191.04987,120.95108 168.35975,225.8634 70.570521,241.00588 Z"
       sodipodi:nodetypes="ccccc"
       transform="matrix(0.0789174,0,0,0.0789174,96.59843,137.32358)" /><ellipse
       style="opacity:1;fill:#ff9933;fill-opacity:1;stroke-width:0.020372"
       id="path5"
       cx="95.055779"
       cy="149.54387"
       rx="0.44945517"
       ry="1.0555776"
       transform="rotate(-1.6499678)" /><ellipse
       style="opacity:1;fill:#ff9933;fill-opacity:1;stroke-width:0.0204038"
       id="path5-6"
       cx="95.784523"
       cy="153.11842"
       rx="0.45015755"
       ry="1.0572271"
       transform="rotate(-1.6499678)" /><ellipse
       style="opacity:1;fill:#ff9933;fill-opacity:1;stroke-width:0.0208803"
       id="path5-6-5"
       cx="96.760582"
       cy="156.98824"
       rx="0.46066743"
       ry="1.0819104"
       transform="rotate(-1.6499678)" /><ellipse
       style="opacity:1;fill:#ff9933;fill-opacity:1;stroke-width:0.0178911"
       id="path5-6-1"
       cx="135.3777"
       cy="-121.18713"
       rx="0.30284247"
       ry="1.2082744"
       transform="matrix(-0.12404449,0.99227666,-0.99530786,-0.09675881,0,0)" /><ellipse
       style="opacity:1;fill:#ff9933;fill-opacity:1;stroke-width:0.0145861"
       id="path5-6-1-7"
       cx="134.24452"
       cy="-123.21901"
       rx="0.24689944"
       ry="0.98507416"
       transform="matrix(-0.12404449,0.99227666,-0.99530786,-0.09675881,0,0)" /><path
       style="opacity:1;fill:#ff9933;fill-opacity:1;stroke-width:0.0208803"
       d="m 104.02905,149.02792 0.23081,-1.72737 6.53716,-0.007 -0.34249,1.58589 -4.646,5.04061 3.76742,-0.48396 -0.2457,1.28064 -6.42547,0.95303 0.18614,-1.37742 4.91403,-5.36822 z"
       id="path6" /></g></svg>
